<svg xmlns="http://www.w3.org/2000/svg" viewBox="0 0 400 400">
  <!-- Network nodes -->
  <circle cx="200" cy="200" r="120" fill="none" stroke="#6666FF" stroke-width="0.5"/>
  <circle cx="200" cy="200" r="95" fill="none" stroke="#6666FF" stroke-width="0.5"/>
  <circle cx="200" cy="200" r="70" fill="none" stroke="#6666FF" stroke-width="0.5"/>
  
  <!-- Outer ring of nodes (12 nodes) -->
  <circle cx="200" cy="80" r="6" fill="#6666FF"/>
  <circle cx="260" cy="100" r="6" fill="#6666FF"/>
  <circle cx="300" cy="150" r="6" fill="#6666FF"/>
  <circle cx="320" cy="200" r="6" fill="#6666FF"/>
  <circle cx="300" cy="250" r="6" fill="#6666FF"/>
  <circle cx="260" cy="300" r="6" fill="#6666FF"/>
  <circle cx="200" cy="320" r="6" fill="#6666FF"/>
  <circle cx="140" cy="300" r="6" fill="#6666FF"/>
  <circle cx="100" cy="250" r="6" fill="#6666FF"/>
  <circle cx="80" cy="200" r="6" fill="#6666FF"/>
  <circle cx="100" cy="150" r="6" fill="#6666FF"/>
  <circle cx="140" cy="100" r="6" fill="#6666FF"/>
  
  <!-- Middle ring of nodes (8 nodes) -->
  <circle cx="200" cy="105" r="4" fill="#6666FF"/>
  <circle cx="271" cy="150" r="4" fill="#6666FF"/>
  <circle cx="295" cy="200" r="4" fill="#6666FF"/>
  <circle cx="271" cy="250" r="4" fill="#6666FF"/>
  <circle cx="200" cy="295" r="4" fill="#6666FF"/>
  <circle cx="129" cy="250" r="4" fill="#6666FF"/>
  <circle cx="105" cy="200" r="4" fill="#6666FF"/>
  <circle cx="129" cy="150" r="4" fill="#6666FF"/>
  
  <!-- Inner ring of nodes (6 nodes) -->
  <circle cx="200" cy="130" r="3" fill="#6666FF"/>
  <circle cx="235" cy="165" r="3" fill="#6666FF"/>
  <circle cx="235" cy="235" r="3" fill="#6666FF"/>
  <circle cx="200" cy="270" r="3" fill="#6666FF"/>
  <circle cx="165" cy="235" r="3" fill="#6666FF"/>
  <circle cx="165" cy="165" r="3" fill="#6666FF"/>
  
  <!-- Center node -->
  <circle cx="200" cy="200" r="5" fill="#6666FF"/>
  
  <!-- Connection lines between nodes -->
  <!-- Outer ring connections -->
  <line x1="200" y1="80" x2="260" y2="100" stroke="#6666FF" stroke-width="1"/>
  <line x1="260" y1="100" x2="300" y2="150" stroke="#6666FF" stroke-width="1"/>
  <line x1="300" y1="150" x2="320" y2="200" stroke="#6666FF" stroke-width="1"/>
  <line x1="320" y1="200" x2="300" y2="250" stroke="#6666FF" stroke-width="1"/>
  <line x1="300" y1="250" x2="260" y2="300" stroke="#6666FF" stroke-width="1"/>
  <line x1="260" y1="300" x2="200" y2="320" stroke="#6666FF" stroke-width="1"/>
  <line x1="200" y1="320" x2="140" y2="300" stroke="#6666FF" stroke-width="1"/>
  <line x1="140" y1="300" x2="100" y2="250" stroke="#6666FF" stroke-width="1"/>
  <line x1="100" y1="250" x2="80" y2="200" stroke="#6666FF" stroke-width="1"/>
  <line x1="80" y1="200" x2="100" y2="150" stroke="#6666FF" stroke-width="1"/>
  <line x1="100" y1="150" x2="140" y2="100" stroke="#6666FF" stroke-width="1"/>
  <line x1="140" y1="100" x2="200" y2="80" stroke="#6666FF" stroke-width="1"/>
  
  <!-- Cross connections in outer ring -->
  <line x1="200" y1="80" x2="300" y2="150" stroke="#6666FF" stroke-width="0.5"/>
  <line x1="200" y1="80" x2="300" y2="250" stroke="#6666FF" stroke-width="0.5"/>
  <line x1="200" y1="80" x2="200" y2="320" stroke="#6666FF" stroke-width="0.5"/>
  <line x1="200" y1="80" x2="100" y2="250" stroke="#6666FF" stroke-width="0.5"/>
  <line x1="200" y1="80" x2="100" y2="150" stroke="#6666FF" stroke-width="0.5"/>
  
  <line x1="260" y1="100" x2="320" y2="200" stroke="#6666FF" stroke-width="0.5"/>
  <line x1="260" y1="100" x2="260" y2="300" stroke="#6666FF" stroke-width="0.5"/>
  <line x1="260" y1="100" x2="100" y2="250" stroke="#6666FF" stroke-width="0.5"/>
  <line x1="260" y1="100" x2="80" y2="200" stroke="#6666FF" stroke-width="0.5"/>
  <line x1="260" y1="100" x2="140" y2="100" stroke="#6666FF" stroke-width="0.5"/>
  
  <line x1="300" y1="150" x2="260" y2="300" stroke="#6666FF" stroke-width="0.5"/>
  <line x1="300" y1="150" x2="140" y2="300" stroke="#6666FF" stroke-width="0.5"/>
  <line x1="300" y1="150" x2="80" y2="200" stroke="#6666FF" stroke-width="0.5"/>
  <line x1="300" y1="150" x2="100" y2="150" stroke="#6666FF" stroke-width="0.5"/>
  
  <line x1="320" y1="200" x2="200" y2="320" stroke="#6666FF" stroke-width="0.5"/>
  <line x1="320" y1="200" x2="100" y2="250" stroke="#6666FF" stroke-width="0.5"/>
  <line x1="320" y1="200" x2="80" y2="200" stroke="#6666FF" stroke-width="0.5"/>
  
  <line x1="300" y1="250" x2="140" y2="300" stroke="#6666FF" stroke-width="0.5"/>
  <line x1="300" y1="250" x2="80" y2="200" stroke="#6666FF" stroke-width="0.5"/>
  <line x1="300" y1="250" x2="100" y2="150" stroke="#6666FF" stroke-width="0.5"/>
  <line x1="300" y1="250" x2="140" y2="100" stroke="#6666FF" stroke-width="0.5"/>
  
  <line x1="260" y1="300" x2="100" y2="250" stroke="#6666FF" stroke-width="0.5"/>
  <line x1="260" y1="300" x2="100" y2="150" stroke="#6666FF" stroke-width="0.5"/>
  <line x1="260" y1="300" x2="140" y2="100" stroke="#6666FF" stroke-width="0.5"/>
  
  <line x1="200" y1="320" x2="80" y2="200" stroke="#6666FF" stroke-width="0.5"/>
  <line x1="200" y1="320" x2="100" y2="150" stroke="#6666FF" stroke-width="0.5"/>
  <line x1="200" y1="320" x2="140" y2="100" stroke="#6666FF" stroke-width="0.5"/>
  
  <line x1="140" y1="300" x2="100" y2="150" stroke="#6666FF" stroke-width="0.5"/>
  <line x1="140" y1="300" x2="140" y2="100" stroke="#6666FF" stroke-width="0.5"/>
  
  <line x1="100" y1="250" x2="140" y2="100" stroke="#6666FF" stroke-width="0.5"/>
  
  <!-- Connect middle ring nodes to center -->
  <line x1="200" y1="105" x2="200" y2="200" stroke="#6666FF" stroke-width="0.5"/>
  <line x1="271" y1="150" x2="200" y2="200" stroke="#6666FF" stroke-width="0.5"/>
  <line x1="295" y1="200" x2="200" y2="200" stroke="#6666FF" stroke-width="0.5"/>
  <line x1="271" y1="250" x2="200" y2="200" stroke="#6666FF" stroke-width="0.5"/>
  <line x1="200" y1="295" x2="200" y2="200" stroke="#6666FF" stroke-width="0.5"/>
  <line x1="129" y1="250" x2="200" y2="200" stroke="#6666FF" stroke-width="0.5"/>
  <line x1="105" y1="200" x2="200" y2="200" stroke="#6666FF" stroke-width="0.5"/>
  <line x1="129" y1="150" x2="200" y2="200" stroke="#6666FF" stroke-width="0.5"/>
  
  <!-- Connect inner ring nodes to each other and to center -->
  <line x1="200" y1="130" x2="235" y2="165" stroke="#6666FF" stroke-width="0.5"/>
  <line x1="235" y1="165" x2="235" y2="235" stroke="#6666FF" stroke-width="0.5"/>
  <line x1="235" y1="235" x2="200" y2="270" stroke="#6666FF" stroke-width="0.5"/>
  <line x1="200" y1="270" x2="165" y2="235" stroke="#6666FF" stroke-width="0.5"/>
  <line x1="165" y1="235" x2="165" y2="165" stroke="#6666FF" stroke-width="0.5"/>
  <line x1="165" y1="165" x2="200" y2="130" stroke="#6666FF" stroke-width="0.5"/>
  
  <line x1="200" y1="130" x2="200" y2="200" stroke="#6666FF" stroke-width="0.5"/>
  <line x1="235" y1="165" x2="200" y2="200" stroke="#6666FF" stroke-width="0.5"/>
  <line x1="235" y1="235" x2="200" y2="200" stroke="#6666FF" stroke-width="0.5"/>
  <line x1="200" y1="270" x2="200" y2="200" stroke="#6666FF" stroke-width="0.5"/>
  <line x1="165" y1="235" x2="200" y2="200" stroke="#6666FF" stroke-width="0.5"/>
  <line x1="165" y1="165" x2="200" y2="200" stroke="#6666FF" stroke-width="0.5"/>
</svg>